<svg xmlns="http://www.w3.org/2000/svg" xmlns:xlink="http://www.w3.org/1999/xlink" width="500" zoomAndPan="magnify" viewBox="0 0 375 374.999991" height="500" preserveAspectRatio="xMidYMid meet" version="1.0"><defs><g/></defs><g fill="#ffffff" fill-opacity="1"><g transform="translate(46.367939, 196.630125)"><g><path d="M 13.421875 -4.34375 L 13.421875 0 L 1.4375 0 L 1.4375 -18.78125 L 6.078125 -18.78125 L 6.078125 -4.34375 Z M 13.421875 -4.34375 "/></g></g></g><g fill="#ffffff" fill-opacity="1"><g transform="translate(76.510001, 196.630125)"><g><path d="M 4.796875 0 L -0.09375 0 L 6.859375 -18.78125 L 11.6875 -18.78125 L 18.453125 0 L 13.59375 0 L 12.609375 -3.140625 L 5.78125 -3.140625 Z M 9.171875 -14.171875 C 9.003906 -13.609375 8.828125 -13.007812 8.640625 -12.375 C 8.453125 -11.75 8.140625 -10.726562 7.703125 -9.3125 L 6.921875 -6.828125 L 11.4375 -6.828125 L 10.65625 -9.3125 C 10.40625 -10.070312 10.148438 -10.875 9.890625 -11.71875 C 9.628906 -12.570312 9.390625 -13.390625 9.171875 -14.171875 Z M 9.171875 -14.171875 "/></g></g></g><g fill="#ffffff" fill-opacity="1"><g transform="translate(111.265661, 196.630125)"><g><path d="M 16.078125 -5.515625 C 16.078125 -3.617188 15.523438 -2.222656 14.421875 -1.328125 C 13.316406 -0.441406 11.578125 0 9.203125 0 L 1.4375 0 L 1.4375 -18.78125 L 9.203125 -18.78125 C 11.359375 -18.78125 12.890625 -18.40625 13.796875 -17.65625 C 14.703125 -16.90625 15.15625 -15.648438 15.15625 -13.890625 C 15.15625 -12.773438 15.003906 -11.921875 14.703125 -11.328125 C 14.398438 -10.742188 13.800781 -10.289062 12.90625 -9.96875 C 13.988281 -9.75 14.785156 -9.269531 15.296875 -8.53125 C 15.816406 -7.789062 16.078125 -6.785156 16.078125 -5.515625 Z M 10.875 -13.203125 C 10.875 -13.867188 10.75 -14.332031 10.5 -14.59375 C 10.25 -14.851562 9.816406 -14.984375 9.203125 -14.984375 L 6.078125 -14.984375 L 6.078125 -11.171875 L 9.203125 -11.171875 C 9.816406 -11.171875 10.25 -11.320312 10.5 -11.625 C 10.75 -11.9375 10.875 -12.460938 10.875 -13.203125 Z M 11.59375 -5.8125 C 11.59375 -6.53125 11.410156 -7.035156 11.046875 -7.328125 C 10.691406 -7.617188 10.078125 -7.765625 9.203125 -7.765625 L 6.078125 -7.765625 L 6.078125 -3.953125 L 9.203125 -3.953125 C 10.078125 -3.953125 10.691406 -4.09375 11.046875 -4.375 C 11.410156 -4.65625 11.59375 -5.132812 11.59375 -5.8125 Z M 11.59375 -5.8125 "/></g></g></g><g fill="#ffffff" fill-opacity="1"><g transform="translate(144.28372, 196.630125)"><g/></g></g><g fill="#ffffff" fill-opacity="1"><g transform="translate(165.04879, 196.630125)"><g><path d="M 12.078125 -6.984375 L 8.84375 -6.984375 L 8.84375 -10.71875 L 16.421875 -10.71875 L 16.421875 -0.84375 C 15.859375 -0.582031 14.859375 -0.328125 13.421875 -0.078125 C 11.984375 0.171875 10.675781 0.296875 9.5 0.296875 C 6.238281 0.296875 3.972656 -0.445312 2.703125 -1.9375 C 1.441406 -3.4375 0.8125 -5.925781 0.8125 -9.40625 C 0.8125 -12.757812 1.546875 -15.207031 3.015625 -16.75 C 4.492188 -18.300781 6.851562 -19.078125 10.09375 -19.078125 C 11.269531 -19.078125 12.320312 -19.050781 13.25 -19 C 14.175781 -18.957031 14.890625 -18.882812 15.390625 -18.78125 L 15.390625 -14.703125 C 14.734375 -14.765625 13.953125 -14.8125 13.046875 -14.84375 C 12.140625 -14.875 11.15625 -14.890625 10.09375 -14.890625 C 8.957031 -14.890625 8.113281 -14.785156 7.5625 -14.578125 C 7.007812 -14.378906 6.59375 -14.03125 6.3125 -13.53125 C 6.0625 -13.132812 5.878906 -12.601562 5.765625 -11.9375 C 5.648438 -11.269531 5.59375 -10.425781 5.59375 -9.40625 C 5.59375 -8.425781 5.644531 -7.601562 5.75 -6.9375 C 5.851562 -6.28125 6.015625 -5.753906 6.234375 -5.359375 C 6.515625 -4.816406 6.90625 -4.4375 7.40625 -4.21875 C 7.914062 -4 8.710938 -3.890625 9.796875 -3.890625 C 10.148438 -3.890625 10.519531 -3.90625 10.90625 -3.9375 C 11.300781 -3.96875 11.691406 -4.015625 12.078125 -4.078125 Z M 12.078125 -6.984375 "/></g></g></g><g fill="#ffffff" fill-opacity="1"><g transform="translate(198.695996, 196.630125)"><g><path d="M 14.375 -4.34375 L 14.375 0 L 1.4375 0 L 1.4375 -18.78125 L 14.109375 -18.78125 L 14.109375 -14.59375 L 6.078125 -14.59375 L 6.078125 -11.46875 L 13 -11.46875 L 13 -7.578125 L 6.078125 -7.578125 L 6.078125 -4.34375 Z M 14.375 -4.34375 "/></g></g></g><g fill="#ffffff" fill-opacity="1"><g transform="translate(230.156235, 196.630125)"><g><path d="M 17.640625 -18.78125 L 17.640625 0 L 13.203125 0 L 5.78125 -10.84375 L 5.78125 0 L 1.4375 0 L 1.4375 -18.78125 L 5.84375 -18.78125 L 13.296875 -7.515625 L 13.296875 -18.78125 Z M 17.640625 -18.78125 "/></g></g></g><g fill="#ffffff" fill-opacity="1"><g transform="translate(265.570983, 196.630125)"><g><path d="M 6.078125 -18.78125 L 6.078125 0 L 1.4375 0 L 1.4375 -18.78125 Z M 6.078125 -18.78125 "/></g></g></g><g fill="#ffffff" fill-opacity="1"><g transform="translate(289.421773, 196.630125)"><g><path d="M 12.765625 -7.90625 L 12.765625 -18.78125 L 17.40625 -18.78125 L 17.40625 -7.90625 C 17.40625 -5.164062 16.734375 -3.113281 15.390625 -1.75 C 14.054688 -0.382812 12.050781 0.296875 9.375 0.296875 C 6.5625 0.296875 4.507812 -0.347656 3.21875 -1.640625 C 1.925781 -2.941406 1.28125 -5.03125 1.28125 -7.90625 L 1.28125 -18.78125 L 5.9375 -18.78125 L 5.9375 -7.90625 C 5.9375 -6.382812 6.171875 -5.359375 6.640625 -4.828125 C 7.109375 -4.304688 8.019531 -4.046875 9.375 -4.046875 C 10.707031 -4.046875 11.601562 -4.304688 12.0625 -4.828125 C 12.53125 -5.359375 12.765625 -6.382812 12.765625 -7.90625 Z M 12.765625 -7.90625 "/></g></g></g><g fill="#ffffff" fill-opacity="1"><g transform="translate(324.447061, 196.630125)"><g><path d="M 8.5625 -7.015625 L 4.765625 -7.90625 C 3.242188 -8.269531 2.207031 -8.816406 1.65625 -9.546875 C 1.113281 -10.285156 0.84375 -11.347656 0.84375 -12.734375 C 0.84375 -14.910156 1.414062 -16.507812 2.5625 -17.53125 C 3.707031 -18.5625 5.488281 -19.078125 7.90625 -19.078125 C 8.90625 -19.078125 9.789062 -19.035156 10.5625 -18.953125 C 11.34375 -18.878906 12.066406 -18.742188 12.734375 -18.546875 L 12.734375 -14.375 C 11.210938 -14.632812 10.164062 -14.785156 9.59375 -14.828125 C 9.03125 -14.867188 8.4375 -14.890625 7.8125 -14.890625 C 6.976562 -14.890625 6.367188 -14.75 5.984375 -14.46875 C 5.609375 -14.1875 5.421875 -13.71875 5.421875 -13.0625 C 5.421875 -12.738281 5.476562 -12.492188 5.59375 -12.328125 C 5.71875 -12.160156 5.953125 -12.035156 6.296875 -11.953125 L 9.890625 -11.109375 C 10.921875 -10.867188 11.664062 -10.632812 12.125 -10.40625 C 12.582031 -10.175781 12.953125 -9.882812 13.234375 -9.53125 C 13.554688 -9.144531 13.789062 -8.648438 13.9375 -8.046875 C 14.09375 -7.453125 14.171875 -6.726562 14.171875 -5.875 C 14.171875 -3.695312 13.585938 -2.125 12.421875 -1.15625 C 11.265625 -0.1875 9.46875 0.296875 7.03125 0.296875 C 5.800781 0.296875 4.625 0.21875 3.5 0.0625 C 2.382812 -0.0820312 1.519531 -0.265625 0.90625 -0.484375 L 0.90625 -4.875 C 1.695312 -4.625 2.640625 -4.421875 3.734375 -4.265625 C 4.835938 -4.117188 5.9375 -4.046875 7.03125 -4.046875 C 7.914062 -4.046875 8.523438 -4.15625 8.859375 -4.375 C 9.203125 -4.59375 9.375 -5.03125 9.375 -5.6875 C 9.375 -6.101562 9.316406 -6.40625 9.203125 -6.59375 C 9.097656 -6.789062 8.882812 -6.929688 8.5625 -7.015625 Z M 8.5625 -7.015625 "/></g></g></g></svg>